<svg width="43" height="42" viewBox="0 0 43 42" fill="none" xmlns="http://www.w3.org/2000/svg">
<g clip-path="url(#clip0_708_78)" filter="url(#filter0_d_708_78)">
<mask id="mask0_708_78" style="mask-type:alpha" maskUnits="userSpaceOnUse" x="4" y="0" width="35" height="34">
<circle cx="21.2926" cy="16.9761" r="16.8067" fill="#F578A5"/>
</mask>
<g mask="url(#mask0_708_78)">
<circle cx="21.2926" cy="16.9761" r="16.8067" fill="#56B280"/>
<path d="M13.562 33.5395V33.9072H13.9297H29.5185H29.8862V33.5395V26.9985C29.8862 26.3977 29.41 25.905 28.8095 25.8845L14.7146 25.404C14.0845 25.3825 13.562 25.8875 13.562 26.518V33.5395Z" fill="white" stroke="white" stroke-width="0.735294"/>
<g clip-path="url(#clip1_708_78)">
<path d="M16.8 11.9708C20.2251 7.20856 18.7518 3.33223 18.7559 3.32763C18.6833 3.13351 18.7818 2.91731 18.976 2.84469C19.0739 2.80806 19.1826 2.81396 19.276 2.86093C25.4577 5.81893 28.1178 9.63743 28.6273 13.0898C28.8298 14.4311 28.7032 15.8015 28.2584 17.0831C27.8508 18.2656 27.1719 19.3362 26.2761 20.2091C24.553 21.8732 22.1449 22.6403 19.7682 21.8626C19.1602 21.6643 18.5865 21.3733 18.0674 20.9999C17.026 20.2524 16.236 19.2064 15.802 18.0002C15.3416 16.7101 15.3269 15.3029 15.7605 14.0035C15.9999 13.2763 16.3506 12.5906 16.8 11.9708Z" fill="white"/>
<path d="M18.8312 3.45089C18.6807 3.30848 18.674 3.07096 18.8164 2.92043C18.9588 2.76989 19.1964 2.76324 19.3469 2.90565C19.358 2.91613 19.3684 2.92727 19.3781 2.93902C19.3919 2.95144 22.3765 6.07991 22.8028 12.1266L22.8073 12.1833C22.8993 13.5965 22.8539 15.0154 22.6716 16.4198L24.7124 14.8559C24.8834 14.7387 25.1169 14.7822 25.2341 14.9531C25.3402 15.1079 25.3157 15.3172 25.1768 15.4432L22.5097 17.481C21.9126 20.9913 19.8077 25.9574 22.5942 29.0656C22.7284 29.2235 22.7091 29.4604 22.5512 29.5946C22.4009 29.7223 22.1773 29.7118 22.0396 29.5706C18.6982 25.8462 21.1296 21.2324 21.795 17.2425L21.8037 17.1865C22.0743 15.5988 22.167 13.9858 22.0802 12.3776L19.6814 10.62C19.5103 10.503 19.4664 10.2695 19.5833 10.0984C19.7003 9.92729 19.9338 9.88341 20.1049 10.0004C20.112 10.0052 20.1189 10.0103 20.1256 10.0156L21.9843 11.384C21.4045 6.14249 18.8421 3.46346 18.8312 3.45089Z" fill="#56B280"/>
</g>
</g>
</g>
<defs>
<filter id="filter0_d_708_78" x="0.48584" y="0.169434" width="41.6133" height="41.6133" filterUnits="userSpaceOnUse" color-interpolation-filters="sRGB">
<feFlood flood-opacity="0" result="BackgroundImageFix"/>
<feColorMatrix in="SourceAlpha" type="matrix" values="0 0 0 0 0 0 0 0 0 0 0 0 0 0 0 0 0 0 127 0" result="hardAlpha"/>
<feOffset dy="4"/>
<feGaussianBlur stdDeviation="2"/>
<feComposite in2="hardAlpha" operator="out"/>
<feColorMatrix type="matrix" values="0 0 0 0 0 0 0 0 0 0 0 0 0 0 0 0 0 0 0.25 0"/>
<feBlend mode="normal" in2="BackgroundImageFix" result="effect1_dropShadow_708_78"/>
<feBlend mode="normal" in="SourceGraphic" in2="effect1_dropShadow_708_78" result="shape"/>
</filter>
<clipPath id="clip0_708_78">
<rect width="33.6134" height="33.6134" fill="white" transform="translate(4.48584 0.169434)"/>
</clipPath>
<clipPath id="clip1_708_78">
<rect width="20.6274" height="20.6274" fill="white" transform="translate(6.46729 16.6353) rotate(-48)"/>
</clipPath>
</defs>
</svg>
